<svg width="156" height="40" viewBox="0 0 156 40" fill="none" xmlns="http://www.w3.org/2000/svg">
<g clip-path="url(#clip0_2_728)">
<path d="M89.5963 24.4461H85.5548C81.2123 24.4461 80.159 25.0166 80.159 29.2682V31.3564C80.159 34.8869 80.9006 35.6941 85.3291 35.6941H89.5211C94.3365 35.6941 95.2501 35.2421 95.2501 33.3799V31.9053H87.4896V28.052H100.517V32.013C100.517 38.4604 98.507 39.9673 90.1768 39.9673H84.8562C77.2461 39.9673 75.0533 38.2882 75.0533 32.0345V28.9561C75.0533 22.0243 76.8914 20.0976 84.9744 20.0976H89.6501C98.335 20.0976 100.517 21.6045 100.517 26.2867H95.2286C95.2071 24.7368 94.4332 24.4461 89.5963 24.4461Z" fill="black"/>
<path d="M112.92 39.9963C105.063 39.9963 102.935 38.2634 102.935 31.7083V29.2004C102.935 21.4721 105.149 20.1805 113.103 20.1805H117.671C126.055 20.1805 128.151 21.3429 128.151 26.9185H122.863C122.83 25.3793 122.304 24.5828 117.435 24.5828H113.479C108.846 24.5828 108.126 24.9595 108.126 29.1466V31.3208C108.126 35.1742 108.868 35.7124 113.296 35.7124H117.488C122.014 35.7124 122.916 35.3464 122.884 33.1183H128.173C128.205 38.3925 126.754 40.0178 117.607 40.0178H112.92V39.9963Z" fill="black"/>
<path d="M145.175 39.9619H140.639C132.448 39.9619 130.503 38.4227 130.503 31.577V29.1875C130.503 21.836 132.33 20.0923 140.725 20.0923H145.25C154.074 20.0923 155.998 21.9221 155.998 29.1122V31.5125C156.02 38.7779 154.042 39.9619 145.175 39.9619ZM144.992 24.5592H141.208C136.371 24.5592 135.694 25.3341 135.694 29.2736V31.3295C135.694 34.86 136.371 35.6026 141.036 35.6026H145.089C150.108 35.6026 150.882 35.0322 150.882 31.2434V29.1875C150.871 25.1942 150.13 24.5592 144.992 24.5592Z" fill="black"/>
<path d="M55.9475 31.2383L60.1717 23.8867H60.4082L64.4819 31.2383H55.9475ZM64.2669 20.1732H56.1732L47.9827 34.8548L51.089 39.9568H51.0998L53.7225 35.1993H66.6854L69.2758 39.9568H75.2736L64.2669 20.1732Z" fill="black"/>
<path d="M36.3407 19.8405L24.3022 0.00317383L-0.000610352 39.9685L36.3407 19.8405Z" fill="#AC162C"/>
<path d="M8.85902 39.9624L36.8271 20.6525L36.5154 20.1358L4.61328 39.9624H8.85902Z" fill="#AC162C"/>
<path d="M17.7107 39.9624L37.6603 22.0194L37.1981 21.266L13.2822 39.9624H17.7107Z" fill="#AC162C"/>
<path d="M26.3864 39.9624L38.8226 23.9461L38.2314 22.9666L21.9471 39.9731H26.3864V39.9624Z" fill="#AC162C"/>
<path d="M48.5016 39.9624C48.5016 39.9624 42.4823 30.2213 39.7091 25.3885L30.6157 39.9624H48.5016Z" fill="#AC162C"/>
</g>
<defs>
<clipPath id="clip0_2_728">
<rect width="156" height="40" fill="white"/>
</clipPath>
</defs>
</svg>
