<svg width="172" height="36" viewBox="0 0 172 36" fill="none" xmlns="http://www.w3.org/2000/svg">
<g clip-path="url(#clip0_2_689)">
<path d="M58.1508 0.347826C58.3523 0.13913 58.8562 0 59.1922 0C60.2336 0 61.275 0 62.1148 0C62.4508 0 62.8203 0 62.9547 0.208696C63.2906 0.417391 63.2906 0.730435 63.2906 1.07826C63.2906 5.84348 63.2906 10.5043 63.2906 15.2696C63.2906 15.4783 63.2906 15.7913 63.6266 16C63.8281 16 63.9625 15.7913 64.1305 15.6522C67.557 13.1478 71.1516 10.887 74.5781 8.38261C75.2836 7.86087 76.1234 7.65217 76.9969 7.65217C78.1727 7.65217 79.4156 7.65217 80.5914 7.65217C81.4312 7.65217 82.1367 7.65217 83.0102 7.86087C83.0102 8.2087 82.6742 8.38261 82.5063 8.5913C79.2477 10.7478 76.157 13.0435 72.8984 15.1652C72.6969 15.3739 72.5625 15.513 72.3945 15.8957C72.3945 16.1043 72.5961 16.4174 72.7305 16.6261C78.7102 22.8174 84.757 28.8696 90.9383 35.0609C91.1399 35.2696 91.2742 35.4087 91.2742 35.7913C91.0727 36 90.9383 36 90.5688 36C88.8555 36 87.3102 36 85.6305 36C84.7906 36 84.0852 35.2696 83.4133 34.5739C78.475 29.6 73.6711 24.8 68.6656 19.8261C68.1617 19.3043 67.4898 19.0957 66.9523 19.6174C66.1125 20.3478 65.2391 20.8348 64.2312 21.3913C63.7273 21.7391 63.3914 22.4696 63.3914 22.9913C63.3914 24.2087 63.3914 25.4957 63.3914 26.713C63.3914 27.0609 63.1898 27.4435 63.0555 27.5826C62.7195 27.7913 62.2156 27.7913 61.8797 27.7913C60.8383 27.7913 59.7969 27.7913 58.8227 27.7913C58.3187 27.7913 57.9828 27.0609 57.9828 26.5739C57.9828 18.0174 57.9828 9.70435 57.9828 1.21739C57.7477 0.869565 57.7477 0.521739 58.1508 0.347826Z" fill="#0325B2"/>
<path d="M87.9821 8.34791C88.1837 8.00008 88.6876 7.82617 89.0235 7.82617C95.3728 7.82617 101.554 7.82617 107.87 7.82617C108.374 7.82617 108.911 8.34791 108.911 8.90443C108.911 9.774 108.911 10.6783 108.911 11.5827C108.911 12.1044 108.407 12.4523 107.87 12.4523C103.906 12.4523 100.143 12.4523 96.2126 12.4523C95.5071 12.4523 95.0368 12.4523 94.3313 12.4523C93.8274 12.4523 93.4915 12.974 93.6259 13.5305C93.6259 14.0523 93.6259 14.6088 93.6259 15.1305C93.6259 15.4783 94.1298 15.6523 94.3313 15.6523C97.254 15.6523 99.9751 15.6523 102.898 15.6523C103.234 15.6523 103.603 15.861 103.738 16.174C104.074 16.6957 103.939 17.2523 103.939 17.774C103.939 18.2957 104.141 18.9914 103.738 19.5479C103.536 19.8957 103.032 20.0696 102.696 20.0696C99.7735 20.0696 96.8509 20.0696 93.9282 20.0696C93.5923 20.0696 93.4243 20.4175 93.4243 20.8001C93.4243 21.3218 93.4243 22.0175 93.4243 22.574C93.6259 22.9218 93.7603 23.3044 94.1298 23.3044C98.9337 23.3044 103.57 23.3044 108.374 23.3044C108.877 23.3044 109.415 23.6523 109.549 24.174C109.549 25.2523 109.549 26.1218 109.549 27.2001C109.348 27.7218 109.045 27.9305 108.508 27.9305C101.991 27.9305 95.5071 27.9305 88.9563 27.9305C88.4524 27.9305 87.7806 27.5827 87.9149 26.8523C87.9149 21.0088 87.9149 15.1305 87.9149 9.28704C87.7806 9.04356 87.7806 8.69574 87.9821 8.34791Z" fill="#0325B2"/>
<path d="M112.808 8.86951C112.808 8.34777 113.312 7.79124 113.849 7.79124C115.227 7.79124 116.772 7.79124 118.149 7.79124C118.855 7.79124 119.695 8.31298 120.031 8.86951C122.248 11.5478 124.331 14.1912 126.548 17.0086C126.884 17.3565 127.388 17.3565 127.724 16.7999C129.941 13.9825 132.191 11.2695 134.409 8.45211C134.913 7.93037 135.584 7.72168 136.122 7.72168C137.499 7.72168 138.843 7.72168 140.422 7.72168C140.758 7.72168 141.262 8.06951 141.463 8.45211C141.463 8.97385 141.463 9.32168 141.463 9.8782C141.463 10.9565 141.463 11.826 141.463 12.9043C141.463 17.5304 141.463 22.3304 141.463 26.9217C141.463 27.4434 140.959 27.7912 140.422 27.7912C139.381 27.7912 138.339 27.7912 137.163 27.7912C136.827 27.7912 136.458 27.7912 136.122 27.5826C135.92 27.3739 135.786 27.0608 135.786 26.713C135.786 22.6086 135.786 18.713 135.786 14.6434C133.065 18.0173 130.31 21.3912 127.522 24.7304C127.186 25.0782 126.682 25.0782 126.346 24.7304C124.969 23.026 123.424 21.2173 122.046 19.4782C120.669 17.8782 119.459 16.313 118.082 14.713C118.082 18.8173 118.082 22.8521 118.082 26.9565C118.082 27.1652 118.082 27.1652 117.881 27.3043C117.679 27.6521 117.377 27.826 116.839 27.826C115.798 27.826 114.756 27.826 113.581 27.826C113.245 27.826 112.875 27.826 112.741 27.6173C112.405 27.4086 112.237 27.0956 112.237 26.5391C112.808 20.7999 112.808 14.9217 112.808 8.86951Z" fill="#0325B2"/>
<path d="M30.3352 8.86952C30.3352 8.34778 30.8391 7.79126 31.3766 7.79126C36.5164 7.79126 41.6563 7.79126 46.7961 7.79126C48.5094 7.79126 50.3906 8.313 51.7344 9.39126C52.9102 10.2608 53.8172 11.6869 53.9516 13.113C54.1531 13.8434 54.1531 14.713 53.9516 15.4087C53.75 17.0087 53.1117 18.5739 51.8688 19.6521C51.5328 20 51.0289 20.1739 50.4914 20.3826C50.1555 20.7304 50.2899 21.113 50.693 21.4608C51.8688 23.2347 53.1117 24.8347 54.2875 26.5739C54.4891 26.7826 54.6234 27.0956 54.4891 27.4434C54.2875 27.6521 53.9852 27.6521 53.6492 27.6521C52.2719 27.6521 50.9281 27.6521 49.6852 27.6521C49.3492 27.6521 48.8453 27.4434 48.5094 27.3043C48.1734 26.9565 47.8039 26.5739 47.6695 26.226C46.9641 25.1478 46.1242 24.0695 45.4524 23.0608C45.1164 22.713 44.9484 22.1913 44.4109 21.8434C43.907 21.4956 43.3695 21.3217 42.6977 21.3217C40.8164 21.3217 38.9352 21.3217 37.0539 21.3217C36.718 21.3217 36.2141 21.3217 36.0125 21.6695C35.8109 22.0173 35.8109 22.4 35.8109 22.8869C35.8109 24.1043 35.8109 25.5652 35.8109 26.7826C35.8109 27.3043 35.307 27.8608 34.7695 27.8608C33.5938 27.8608 32.3508 27.8608 31.175 27.8608C30.6711 27.8608 30.1336 27.3391 30.1336 26.7826C30.3352 20.9391 30.3352 14.9217 30.3352 8.86952ZM36.1805 12.8C35.8445 13.3217 35.9789 14.0173 35.9789 14.5739C35.9789 15.0956 35.9789 15.6521 36.1805 16.3478C36.382 16.8695 36.886 17.0782 37.2219 16.8695C40.2789 16.8695 43.2016 16.8695 46.3258 16.8695C47.1656 16.8695 48.0391 16.6608 48.543 16C48.8789 15.4782 49.0469 14.7826 49.0469 14.226C48.8453 13.8782 48.7109 13.4956 48.3414 13.1478C47.6359 12.626 46.9641 12.626 46.1242 12.626C45.4188 12.626 44.7469 12.626 44.0414 12.626C43.3359 12.626 42.6641 12.626 42.1602 12.626C41.1188 12.626 39.943 12.626 38.9016 12.626C38.3977 12.626 38.0617 12.626 37.5242 12.626C36.8859 12.4521 36.382 12.4521 36.1805 12.8Z" fill="#0325B2"/>
<path d="M11.1529 8C11.3545 8 11.6568 8 11.8584 8C13.2357 8 14.5794 8 15.8224 8C16.5279 8 16.9982 8.34783 17.3677 8.86957C20.4248 14.5391 23.3474 20.2435 26.4716 25.913C26.6732 26.4348 26.9755 26.7826 27.1771 27.3391C27.1771 27.687 26.8412 27.8609 26.4716 27.8609C25.2959 27.8609 23.8849 27.8609 22.7091 27.8609C22.0037 27.8609 21.5334 27.513 21.1638 26.7826C20.8279 26.0522 20.324 25.3565 19.988 24.6261C19.6521 23.8957 18.9466 23.7565 18.2748 23.7565C15.2177 23.7565 11.9255 23.7565 8.83492 23.7565C8.12945 23.7565 7.65914 24.1043 7.28961 24.6261C6.7857 25.3565 6.44976 26.2261 5.91226 27.1304C5.57633 27.6522 5.07242 28 4.36695 28C3.19117 28 1.9482 28 0.772418 28C0.570856 28 0.268512 28 0.0669494 27.6522C-0.134613 27.4435 0.0669494 27.1304 0.268512 26.9217C3.32554 21.0783 6.61773 15.2 9.70836 9.14783C10.1115 8.55652 10.649 8.13913 11.1529 8ZM13.5716 13.3217C13.2357 13.5304 13.2357 13.8435 13.0677 14.1913C12.3623 15.6174 11.6904 16.8696 10.8505 18.2957C10.649 18.5043 10.5146 18.8174 10.649 19.0261C10.8505 19.2348 11.1529 19.3739 11.3544 19.3739C12.8998 19.3739 14.4115 19.3739 15.9568 19.3739C16.1584 19.3739 16.4607 19.3739 16.6623 19.1652C16.8638 18.8174 16.4607 18.4348 16.3263 18.087C15.6209 16.6957 14.781 15.2696 14.1091 13.8435C14.0755 13.3217 13.874 12.9739 13.5716 13.3217Z" fill="#0325B2"/>
<path d="M154.666 8.86957C155.002 8.34783 155.505 8 156.211 8C157.588 8 158.932 8 160.511 8C161.216 8 161.687 8.34783 162.056 8.86957C165.315 14.9217 168.573 20.9391 171.798 26.9565C172 27.1652 172 27.3043 172 27.687C171.798 27.8956 171.496 28.0348 171.16 28.0348C169.984 28.0348 168.741 28.0348 167.566 28.0348C166.86 28.0348 166.39 27.687 166.02 27.1652C165.684 26.6435 165.516 26.087 165.18 25.5652C164.845 25.0435 164.677 24.487 164.139 24.1391C163.803 23.9304 163.299 23.9304 162.963 23.9304C159.705 23.9304 156.614 23.9304 153.355 23.9304C152.65 23.9304 152.314 24.2783 151.978 24.8C151.642 25.5304 151.138 26.2261 150.802 27.0956C150.466 27.6174 149.761 27.9652 149.257 27.9652C148.081 27.9652 147.04 27.9652 145.83 27.9652C145.629 27.9652 145.327 27.9652 145.125 27.7565C145.125 27.5478 145.125 27.4087 145.125 27.0261C148.115 20.9391 151.373 14.9217 154.666 8.86957ZM157.521 14.0174C156.816 15.4435 155.976 17.0435 155.102 18.4696C154.901 18.8174 155.304 19.2 155.606 19.2C156.782 19.2 158.025 19.2 159.201 19.2C159.906 19.2 160.377 19.2 161.082 18.9913C161.284 18.7826 161.284 18.4696 161.082 18.1217C160.242 16.5217 159.369 14.9565 158.495 13.3565C158.294 13.1478 158.159 13.0087 157.991 13.0087C157.924 13.3217 157.723 13.6696 157.521 14.0174Z" fill="#0325B2"/>
</g>
<defs>
<clipPath id="clip0_2_689">
<rect width="172" height="36" fill="white"/>
</clipPath>
</defs>
</svg>
