<svg width="177" height="37" viewBox="0 0 177 37" fill="none" xmlns="http://www.w3.org/2000/svg">
<path d="M52.906 7.82788H39.9098L34.5756 28.7346H50.8208C56.4945 28.7346 63.429 24.7477 63.429 17.1143C63.429 11.5716 60.2769 7.82788 52.906 7.82788ZM54.7002 18.0381C54.3123 21.8305 51.9846 24.7963 46.4079 24.7963H44.3712L47.3778 13.1275H49.9479C52.6635 13.1761 55.1367 13.9054 54.7002 18.0381Z" fill="#0099CC"/>
<path d="M84.5721 7.82788H74.825L63.0411 28.7346H67.8905L69.8302 25.3312H79.0439L79.6743 28.7346H88.4515L84.5721 7.82788ZM72.7883 19.9829L76.7162 13.0302L78.0255 19.9829H72.7883Z" fill="#0099CC"/>
<path d="M171.229 7.97363H177L171.666 28.8317H161.967L157.36 17.017L154.354 28.8317H148.534L153.917 8.02225L163.422 7.97363L168.126 20.0801L171.229 7.97363Z" fill="#0099CC"/>
<path d="M110.807 7.97363H119.633L117.838 14.9749L125.791 7.97363H134.423L123.173 17.8922L131.077 28.8317H121.136L116.044 21.8304L114.25 28.8317H105.473L110.807 7.97363Z" fill="#0099CC"/>
<path d="M140 7.97363H148.777L143.443 28.8317H134.666L140 7.97363Z" fill="#0099CC"/>
<path d="M96.9378 7.97363H105.764L100.381 28.8317H91.6035L96.9378 7.97363Z" fill="#0099CC"/>
<path d="M0 0H40.0069L0 37V0Z" fill="#33CCFF"/>
<path d="M19.9792 0H0V18.5243L19.9792 0Z" fill="#231F20"/>
</svg>
