<svg width="147" height="38" viewBox="0 0 147 38" fill="none" xmlns="http://www.w3.org/2000/svg">
<g clip-path="url(#clip0_2_697)">
<path d="M146.275 25.4143H143.617C143.335 25.4143 143.134 25.1715 143.134 24.9287C143.053 23.3099 142.449 21.7721 141.482 20.5176C141.321 20.3153 141.16 20.1129 140.959 19.9106C139.912 18.737 138.462 18.049 136.891 18.0895H135.2V24.8882C135.2 25.1715 134.958 25.4143 134.676 25.4143H131.897C131.615 25.4143 131.374 25.1715 131.374 24.8882V8.78171C131.374 8.49843 131.615 8.25562 131.897 8.25562H134.676C134.958 8.25562 135.2 8.49843 135.2 8.78171V14.2045H136.891C139.912 14.2045 142.368 11.7764 142.449 8.74124C142.449 8.49843 142.65 8.29608 142.932 8.25562H145.751C146.033 8.25562 146.275 8.49843 146.275 8.78171C146.235 11.6954 144.865 14.4068 142.57 16.147C143.174 16.5921 143.698 17.1182 144.181 17.7253C145.913 19.7487 146.879 22.2982 147 24.9287C147 25.2119 146.799 25.4548 146.517 25.4548L146.275 25.4143Z" fill="#991D85"/>
<path d="M116.271 12.3025C113.25 11.1289 109.908 11.1289 106.887 12.3025V24.8882C106.887 25.1715 106.645 25.4143 106.364 25.4143H103.585C103.303 25.4143 103.061 25.1715 103.061 24.8882V10.1576C103.061 9.99574 103.142 9.83387 103.303 9.75293C108.458 6.83919 114.741 6.83919 119.896 9.75293C120.057 9.83387 120.137 10.0362 120.137 10.1981V24.8882C120.137 25.1715 119.896 25.4143 119.614 25.4143H116.794C116.513 25.4143 116.271 25.1715 116.271 24.8882V12.3025Z" fill="#991D85"/>
<path d="M123.842 24.8477V8.78171C123.842 8.49843 124.084 8.25562 124.366 8.25562H127.145C127.427 8.25562 127.668 8.49843 127.668 8.78171V24.8477C127.668 25.131 127.427 25.3738 127.145 25.3738H124.366C124.044 25.3738 123.802 25.1715 123.842 24.8477Z" fill="#991D85"/>
<path d="M75.8358 8.29614H79.541C79.8229 8.29614 80.0646 8.53895 80.0646 8.82223C80.0646 8.90317 80.0646 8.94364 80.0243 9.02458L73.9026 25.0906C73.8221 25.2929 73.6207 25.4548 73.3791 25.4548H68.7073C68.5059 25.4548 68.3046 25.3334 68.224 25.1311L62.4246 8.94364V8.82223C62.4246 8.53895 62.6259 8.33661 62.9078 8.29614H66.6533C66.8547 8.29614 67.0561 8.45802 67.1366 8.66036L71.1237 21.5698L75.3928 8.61989C75.4733 8.41755 75.6344 8.29614 75.8358 8.29614Z" fill="#991D85"/>
<path d="M60.3303 25.4142H46.8385C46.6371 25.4142 46.476 25.2928 46.3552 25.131C44.9054 22.5814 44.1804 19.7082 44.1804 16.7944C44.1804 13.8807 44.9054 11.0479 46.3149 8.49837C46.4358 8.33649 46.6371 8.21509 46.8385 8.21509H59.6456C59.8873 8.25556 60.0886 8.4579 60.1289 8.70071V11.6144C60.1289 11.8573 59.8873 12.0596 59.6456 12.1001H48.8925C48.53 12.9904 48.2884 13.9212 48.1675 14.8924H58.9207C59.2026 14.8924 59.404 15.0947 59.4443 15.378V18.2108C59.4443 18.4941 59.2026 18.7369 58.9207 18.7369H48.1675C48.2884 19.7082 48.5703 20.6389 48.8925 21.5293H60.3303C60.6122 21.5293 60.8136 21.7316 60.8538 22.0149V24.8477C60.8538 25.131 60.6122 25.3738 60.3303 25.3738V25.4142Z" fill="#991D85"/>
<path d="M95.4895 12.3025C92.469 11.1289 89.1262 11.1289 86.1057 12.3025V21.4079C89.1262 22.5815 92.469 22.5815 95.4895 21.4079V12.3025ZM90.8177 26.1427C87.918 26.1427 85.0586 25.4143 82.5213 23.9574C82.3602 23.8765 82.2797 23.7146 82.2797 23.5527V10.1576C82.2797 9.99574 82.3602 9.83387 82.5213 9.75293C87.6764 6.83919 93.9591 6.83919 99.1142 9.75293C99.2753 9.83387 99.3558 9.99574 99.3558 10.1576V23.5527C99.3558 23.7146 99.235 23.8765 99.1142 23.9574C96.5367 25.4143 93.6772 26.1427 90.8177 26.1427Z" fill="#991D85"/>
<path d="M16.7939 3.84439C9.62518 3.80392 3.82572 9.63139 3.78545 16.8348C3.78545 24.0382 9.54463 29.8657 16.7134 29.9062C20.4991 29.9062 24.0835 28.2874 26.5402 25.4141H12.9679C12.8068 25.4141 12.686 25.3737 12.5249 25.2927C7.8934 22.9456 6.04079 17.28 8.37668 12.6261C9.26271 10.805 10.7528 9.34811 12.5249 8.4578C12.6457 8.37687 12.8068 8.3364 12.9679 8.3364H20.5797C20.7408 8.3364 20.8616 8.37687 21.0227 8.4578C22.3518 9.14577 23.5197 10.117 24.4057 11.3311C24.5668 11.5739 24.5265 11.8976 24.3252 12.0595C24.2446 12.1404 24.1238 12.1809 23.9627 12.1809H13.7331C11.1556 13.8806 10.4307 17.3609 12.1222 19.9509C12.5249 20.5984 13.0887 21.1649 13.7331 21.5696H32.1383C32.4202 21.5696 32.6619 21.772 32.7022 22.0552C32.7022 22.1362 32.7022 22.2171 32.6619 22.2576C29.7219 31.0797 20.177 35.8146 11.3972 32.8604C2.65778 29.8657 -2.09455 20.3151 0.885725 11.4929C3.82572 2.6708 13.3707 -2.1045 22.1504 0.890179C28.9567 3.19689 33.5882 9.63139 33.5882 16.8348C33.5882 17.3204 33.5882 17.806 33.5076 18.2512C33.5076 18.5345 33.266 18.7368 32.9841 18.7368H15.0219C14.8205 18.7368 14.6191 18.6154 14.5386 18.4131C14.0956 17.4014 14.0956 16.2278 14.5386 15.2161C14.6191 15.0137 14.8205 14.8923 15.0219 14.8923H29.6011C28.6345 8.53874 23.1975 3.84439 16.7939 3.84439Z" fill="#991D85"/>
<path d="M59.9679 31.6464H60.0887C60.9345 31.6059 61.3372 31.5654 61.74 31.5654C62.3843 31.525 63.0287 31.6464 63.6328 31.9297C64.1967 32.2939 64.5591 32.9414 64.5189 33.6293C64.5189 34.9243 63.5926 35.6528 61.9413 35.6528H61.4178V37.8381H59.9679V31.6464ZM61.3775 34.5197C61.458 34.5197 61.5789 34.5197 61.6594 34.5197H61.74C62.6663 34.5197 63.069 34.2768 63.069 33.6293C63.069 33.0223 62.7065 32.739 61.9413 32.739H61.8608H61.3775V34.5197Z" fill="#991D85"/>
<path d="M71.4459 34.7221C71.4459 36.7456 70.2377 38.0001 68.3046 38.0001C66.3714 38.0001 65.2035 36.786 65.2035 34.8435C65.2035 32.8201 66.4117 31.5251 68.3851 31.5251C70.3586 31.4847 71.4459 32.7392 71.4459 34.7221ZM66.7742 34.7221C66.7742 36.0171 67.338 36.7456 68.3449 36.7456C69.3114 36.7456 69.9155 35.9767 69.9155 34.7221C69.9155 33.4271 69.3517 32.6987 68.3449 32.6987C67.338 32.6582 66.7742 33.4676 66.7742 34.7221Z" fill="#991D85"/>
<path d="M73.4596 31.6465C73.7818 33.1843 73.8221 33.4676 74.2248 35.1268C74.3457 35.5719 74.4262 36.0171 74.5067 36.4622V37.1097L74.5873 36.4622C74.6678 36.0171 74.7484 35.5315 74.9095 35.0863C75.0303 34.6816 75.1109 34.4388 75.1109 34.3579L75.4733 32.9415L75.7955 31.6465H77.5273L77.6884 32.4154L78.1314 34.3579L78.4536 35.7743C78.5744 36.2194 78.6147 36.6646 78.655 37.1097C78.655 36.6646 78.7355 36.179 78.8563 35.7338L79.2188 34.3174L79.7424 32.294L79.9035 31.6465H81.3533C80.7895 33.9532 80.3465 35.4101 79.5813 37.9191H77.6884L77.2856 36.2599C76.9232 35.0863 76.7218 33.8723 76.6815 32.6582C76.601 33.9127 76.3996 35.1268 75.9969 36.3004L75.5539 37.9191H73.661L73.3791 36.9479C73.0972 35.9362 72.6944 34.4388 72.4125 33.3462L72.0098 31.6465H73.4596Z" fill="#991D85"/>
<path d="M82.3199 31.6465H86.2668V32.8605H83.7295V34.0746H86.2265V35.2887H83.7295V36.6241H86.3071V37.8382H82.2797L82.3199 31.6465Z" fill="#991D85"/>
<path d="M87.8777 31.6464H87.9985C88.7234 31.606 89.1262 31.5655 89.6095 31.5655C90.2538 31.4846 90.9385 31.6465 91.5023 31.9297C92.0662 32.2535 92.4286 32.901 92.3884 33.5889C92.4286 34.3578 91.9454 35.0458 91.2607 35.2886C91.8648 36.1385 92.5092 36.9883 93.1939 37.7977L93.2744 37.8786H91.5023C91.1399 37.4335 90.2941 36.2194 89.9317 35.6528L89.8511 35.5314H89.247V37.8786H87.8374V31.6464H87.8777ZM89.2873 34.3983C89.4484 34.3983 89.6095 34.3983 89.7303 34.3983C90.6163 34.3983 91.0191 34.1555 91.0191 33.5485C91.0191 32.9414 90.6163 32.6986 89.8108 32.6986C89.69 32.6986 89.6095 32.6986 89.4886 32.6986H89.3275L89.2873 34.3983Z" fill="#991D85"/>
<path d="M98.6712 32.8605H96.738V31.6465H102.094V32.8605H100.121V37.8787H98.6712V32.8605Z" fill="#991D85"/>
<path d="M108.579 34.7221C108.579 36.7456 107.37 38.0001 105.437 38.0001C103.504 38.0001 102.376 36.786 102.376 34.8435C102.376 32.8201 103.585 31.5251 105.558 31.5251C107.491 31.4847 108.579 32.7392 108.579 34.7221ZM103.866 34.7221C103.866 36.0171 104.43 36.7456 105.437 36.7456C106.404 36.7456 107.008 35.9767 107.008 34.7221C107.008 33.4271 106.484 32.6987 105.477 32.6987C104.471 32.6987 103.907 33.4676 103.866 34.7221Z" fill="#991D85"/>
<path d="M117.922 37.555C117.318 37.8383 116.633 37.9597 115.949 37.9597C113.814 37.9597 112.525 36.7457 112.525 34.8436C112.525 32.9011 113.935 31.5657 116.11 31.5657C116.754 31.5657 117.358 31.6871 117.922 31.9704V33.3463C117.439 33.0225 116.835 32.8202 116.231 32.8202C114.902 32.8202 114.056 33.5891 114.056 34.8032C114.056 36.0172 114.861 36.7457 116.19 36.7457C116.794 36.7457 117.399 36.5433 117.922 36.2196V37.555Z" fill="#991D85"/>
<path d="M119.412 31.6464H119.533C120.258 31.606 120.661 31.5655 121.144 31.5655C121.788 31.4846 122.473 31.6465 123.037 31.9297C123.601 32.2535 123.963 32.901 123.923 33.5889C123.963 34.3578 123.52 35.0458 122.795 35.2886C123.198 35.8552 124.205 37.1906 124.728 37.7977L124.809 37.8786H123.037C122.674 37.4335 121.829 36.2194 121.466 35.6528L121.386 35.5314H120.782V37.8786H119.372L119.412 31.6464ZM120.822 34.3983C120.983 34.3983 121.144 34.3983 121.265 34.3983C122.151 34.3983 122.554 34.1555 122.554 33.5485C122.554 32.9414 122.151 32.6986 121.345 32.6986C121.225 32.6986 121.144 32.6986 121.023 32.6986H120.822V34.3983Z" fill="#991D85"/>
<path d="M125.655 31.6465H129.642V32.8605H127.064V34.0746H129.561V35.2887H127.064V36.6241H129.682V37.8382H125.655V31.6465Z" fill="#991D85"/>
<path d="M130.447 37.8383C131.011 36.2196 131.937 33.9129 132.985 31.5657H134.394C135.28 33.67 135.884 35.2888 136.73 37.8383H135.159L134.636 36.1791H132.501L131.937 37.8383H130.447ZM134.314 35.046L133.951 33.9533C133.83 33.5891 133.709 33.2249 133.669 32.8607C133.589 33.1035 133.589 33.1439 133.589 33.2654L133.307 34.0343L132.944 35.046H134.314Z" fill="#991D85"/>
<path d="M138.381 32.8605H136.408V31.6465H141.764V32.8605H139.791V37.8787H138.341L138.381 32.8605Z" fill="#991D85"/>
<path d="M142.852 31.6465H146.839V32.8605H144.261V34.0746H146.758V35.2887H144.261V36.6241H146.879V37.8382H142.852V31.6465Z" fill="#991D85"/>
</g>
<defs>
<clipPath id="clip0_2_697">
<rect width="147" height="38" fill="white"/>
</clipPath>
</defs>
</svg>
