<svg width="176" height="32" viewBox="0 0 176 32" fill="none" xmlns="http://www.w3.org/2000/svg">
<g clip-path="url(#clip0_2_674)">
<path d="M84.5443 -0.0178413C81.4664 -0.0178413 81.1866 1.95466 80.627 3.92716C80.0674 6.46323 75.0309 26.1882 75.0309 26.1882H85.9433L92.6586 0.263947" fill="#ED1C24"/>
<path d="M121.823 3.73819C121.263 6.27427 116.227 25.9993 116.227 25.9993H127.139L133.854 0.0749798H125.74C122.662 0.0749798 122.382 2.04748 121.823 3.73819Z" fill="#ED1C24"/>
<path d="M170.554 -0.00949478C168.035 -0.00949478 167.476 1.11765 166.916 2.80836C166.636 4.49908 162.16 21.1244 162.16 21.1244C162.16 21.1244 162.16 20.5609 162.16 19.9973C161.32 16.8977 157.962 4.49908 157.403 2.24479C156.843 -0.00949287 154.605 -0.00949478 152.087 -0.00949478C151.527 -0.00949478 140.055 -0.00949478 140.055 -0.00949478L133.34 25.9148H136.977C140.615 25.9148 141.454 25.0694 142.293 22.5334C142.573 21.688 146.77 4.49908 146.77 4.49908C146.77 4.49908 146.77 5.06265 147.05 5.90801C147.33 6.75336 151.247 21.4062 151.247 21.9698C152.366 25.0694 154.045 25.9148 157.962 25.9148H168.875L175.59 -0.00949478" fill="#ED1C24"/>
<path d="M57.6382 5.32759H68.2708C73.5871 5.32759 75.8256 2.79152 76.3852 -0.0263405H56.7988C49.8036 -0.0263405 44.7671 -0.308123 43.3681 7.01831C43.3681 7.01831 41.9691 12.654 40.8499 16.599C39.4508 21.9529 40.0104 25.8979 50.0834 25.8979C52.0421 25.8979 63.2343 25.8979 64.6333 25.8979C69.6698 25.8979 71.6285 24.7708 72.7477 20.544H53.7209C51.2027 20.544 50.9229 18.8533 51.2027 17.7262C51.4825 16.8808 51.4825 16.0354 51.7623 15.4719H60.7161C68.5506 15.4719 69.1102 12.654 69.9496 10.1179H53.1613C53.1613 9.55438 53.4411 8.99081 53.7209 8.42723C54.2805 6.73652 54.8401 5.32759 57.6382 5.32759Z" fill="#ED1C24"/>
<path d="M104.296 4.01161C104.016 5.42054 100.658 18.3827 100.379 18.9463C99.8189 21.4823 99.5391 25.1455 94.2228 25.1455H93.6632C90.0257 25.1455 88.9065 26.2727 88.3469 27.9634L87.2277 32.1902H94.5026C97.5805 32.1902 98.6997 31.6266 99.2593 30.2177C99.5391 29.3723 99.5391 29.0905 99.8189 28.8088C100.379 25.9909 102.057 25.9909 104.016 25.9909C104.016 25.9909 105.415 25.9909 105.695 25.9909C107.933 25.9909 109.612 25.4273 110.452 22.6095L116.327 0.0666122H108.493C105.135 0.0666122 104.855 2.03911 104.296 4.01161Z" fill="#ED1C24"/>
<path d="M43.0149 -0.0180397H5.80072C3.56228 -0.0180397 2.16325 -0.0180378 1.32383 2.23625C0.20461 4.49053 -0.0751953 5.61768 -0.0751953 5.61768H15.0343L9.718 25.9062H16.4333C20.9102 25.9062 21.19 23.9337 21.7496 21.9612C22.3093 20.2705 24.5477 11.5352 25.9467 5.33589H34.0611C40.7764 5.61768 42.4553 1.67268 43.0149 -0.0180397Z" fill="#ED1C24"/>
</g>
<defs>
<clipPath id="clip0_2_674">
<rect width="176" height="32" fill="white"/>
</clipPath>
</defs>
</svg>
