<svg width="79" height="82" viewBox="0 0 79 82" fill="none" xmlns="http://www.w3.org/2000/svg">
<rect opacity="0.1" width="79" height="82" rx="5" fill="#E250EB"/>
<path d="M56.4727 23H34.4767C34.1852 23 33.9493 23.2359 33.9493 23.5273C33.9493 23.8188 34.1852 24.0547 34.4767 24.0547H55.9453V28.625H29.5963V24.0547H32.3033C32.5947 24.0547 32.8306 23.8188 32.8306 23.5273C32.8306 23.2359 32.5947 23 32.3033 23H29.0689C28.7778 23 28.5416 23.2359 28.5416 23.5273L28.5418 31.9297H21.5273C21.2359 31.9297 21 32.1656 21 32.457V54.4767C21 54.7678 21.2359 55.004 21.5273 55.004C21.8188 55.004 22.0547 54.7678 22.0547 54.4767V38.6094H52.5C52.7914 38.6094 53.0273 38.3734 53.0273 38.082C53.0273 37.7906 52.7914 37.5547 52.5 37.5547H22.0547V32.9844H55.9453V37.5547H54.7382C54.4471 37.5547 54.2108 37.7906 54.2108 38.082C54.2108 38.3734 54.4471 38.6094 54.7382 38.6094H55.9453V57.9453H22.0547V56.75C22.0547 56.4586 21.8188 56.2227 21.5273 56.2227C21.2359 56.2227 21 56.4586 21 56.75V58.4727C21 58.7641 21.2359 59 21.5273 59H56.4727C56.7641 59 57 58.7641 57 58.4727V23.5273C57 23.2359 56.7641 23 56.4727 23ZM29.5965 31.9297V29.6797H55.9453V31.9297H29.5965Z" fill="#E250EB"/>
<path d="M30.7213 26.3047C30.7213 27.177 31.431 27.8867 32.3033 27.8867C33.1757 27.8867 33.8854 27.177 33.8854 26.3047C33.8854 25.4324 33.1757 24.7227 32.3033 24.7227C31.431 24.7227 30.7213 25.4324 30.7213 26.3047ZM32.8307 26.3047C32.8307 26.5956 32.5942 26.832 32.3033 26.832C32.0125 26.832 31.776 26.5956 31.776 26.3047C31.776 26.0138 32.0125 25.7773 32.3033 25.7773C32.5942 25.7773 32.8307 26.0138 32.8307 26.3047Z" fill="#E250EB"/>
<path d="M38.1041 26.3047C38.1041 25.4324 37.3944 24.7227 36.5221 24.7227C35.6498 24.7227 34.9401 25.4324 34.9401 26.3047C34.9401 27.177 35.6498 27.8867 36.5221 27.8867C37.3944 27.8867 38.1041 27.177 38.1041 26.3047ZM35.9948 26.3047C35.9948 26.0138 36.2312 25.7773 36.5221 25.7773C36.813 25.7773 37.0494 26.0138 37.0494 26.3047C37.0494 26.5956 36.813 26.832 36.5221 26.832C36.2312 26.832 35.9948 26.5956 35.9948 26.3047Z" fill="#E250EB"/>
<path d="M42.3229 26.3047C42.3229 25.4324 41.6132 24.7227 40.7408 24.7227C39.8685 24.7227 39.1588 25.4324 39.1588 26.3047C39.1588 27.177 39.8685 27.8867 40.7408 27.8867C41.6132 27.8867 42.3229 27.177 42.3229 26.3047ZM40.2135 26.3047C40.2135 26.0138 40.45 25.7773 40.7408 25.7773C41.0317 25.7773 41.2682 26.0138 41.2682 26.3047C41.2682 26.5956 41.0317 26.832 40.7408 26.832C40.45 26.832 40.2135 26.5956 40.2135 26.3047Z" fill="#E250EB"/>
<path d="M23.1797 35.2344C23.1797 36.1067 23.8894 36.8164 24.7617 36.8164C25.634 36.8164 26.3438 36.1067 26.3438 35.2344C26.3438 34.3621 25.634 33.6523 24.7617 33.6523C23.8894 33.6523 23.1797 34.3621 23.1797 35.2344ZM25.2891 35.2344C25.2891 35.5252 25.0526 35.7617 24.7617 35.7617C24.4709 35.7617 24.2344 35.5252 24.2344 35.2344C24.2344 34.9435 24.4709 34.707 24.7617 34.707C25.0526 34.707 25.2891 34.9435 25.2891 35.2344Z" fill="#E250EB"/>
<path d="M27.3984 35.2344C27.3984 36.1067 28.1082 36.8164 28.9805 36.8164C29.8528 36.8164 30.5625 36.1067 30.5625 35.2344C30.5625 34.3621 29.8528 33.6523 28.9805 33.6523C28.1082 33.6523 27.3984 34.3621 27.3984 35.2344ZM29.5078 35.2344C29.5078 35.5252 29.2713 35.7617 28.9805 35.7617C28.6896 35.7617 28.4531 35.5252 28.4531 35.2344C28.4531 34.9435 28.6896 34.707 28.9805 34.707C29.2713 34.707 29.5078 34.9435 29.5078 35.2344Z" fill="#E250EB"/>
<path d="M31.6172 35.2344C31.6172 36.1067 32.3269 36.8164 33.1992 36.8164C34.0715 36.8164 34.7812 36.1067 34.7812 35.2344C34.7812 34.3621 34.0715 33.6523 33.1992 33.6523C32.3269 33.6523 31.6172 34.3621 31.6172 35.2344ZM33.7266 35.2344C33.7266 35.5252 33.4901 35.7617 33.1992 35.7617C32.9084 35.7617 32.6719 35.5252 32.6719 35.2344C32.6719 34.9435 32.9084 34.707 33.1992 34.707C33.4901 34.707 33.7266 34.9435 33.7266 35.2344Z" fill="#E250EB"/>
<path d="M37.3057 41.8456H24.9307C24.6395 41.8456 24.4033 42.0818 24.4033 42.373V52.7792C24.4033 53.0706 24.6395 53.3066 24.9307 53.3066H37.3057C37.5971 53.3066 37.833 53.0706 37.833 52.7792V42.373C37.833 42.0818 37.5971 41.8456 37.3057 41.8456ZM36.7783 42.9003V47.3358L33.5461 50.1455L29.3024 46.8983C29.0011 46.6678 28.5754 46.6818 28.29 46.9323L25.458 49.4174V42.9003H36.7783ZM25.458 52.2519V50.8206L28.8281 47.8634L34.5632 52.2519H25.458ZM36.7783 52.2519H36.299L34.4012 50.8L36.7783 48.7332V52.2519Z" fill="#E250EB"/>
<path d="M33.9518 47.0614C34.9757 47.0614 35.809 46.2281 35.809 45.2039C35.809 44.18 34.9757 43.3467 33.9518 43.3467C32.9276 43.3467 32.0942 44.18 32.0942 45.2039C32.0942 46.2281 32.9276 47.0614 33.9518 47.0614ZM33.9518 44.4014C34.3942 44.4014 34.7543 44.7614 34.7543 45.2039C34.7543 45.6467 34.3942 46.0067 33.9518 46.0067C33.509 46.0067 33.1489 45.6467 33.1489 45.2039C33.1489 44.7614 33.509 44.4014 33.9518 44.4014Z" fill="#E250EB"/>
<path d="M40.9479 47.2227H52.4767C52.7678 47.2227 53.004 46.9865 53.004 46.6953C53.004 46.4039 52.7678 46.168 52.4767 46.168H40.9479C40.6565 46.168 40.4205 46.4039 40.4205 46.6953C40.4205 46.9865 40.6565 47.2227 40.9479 47.2227Z" fill="#E250EB"/>
<path d="M40.9479 44.2311H46.7121C47.0035 44.2311 47.2395 43.9951 47.2395 43.7037C47.2395 43.4126 47.0035 43.1764 46.7121 43.1764H40.9479C40.6565 43.1764 40.4205 43.4126 40.4205 43.7037C40.4205 43.9951 40.6565 44.2311 40.9479 44.2311Z" fill="#E250EB"/>
<path d="M40.9479 49.7539H52.4767C52.7678 49.7539 53.004 49.5177 53.004 49.2266C53.004 48.9352 52.7678 48.6992 52.4767 48.6992H40.9479C40.6565 48.6992 40.4205 48.9352 40.4205 49.2266C40.4205 49.5177 40.6565 49.7539 40.9479 49.7539Z" fill="#E250EB"/>
<path d="M40.9479 52.2852H52.4767C52.7678 52.2852 53.004 52.049 53.004 51.7578C53.004 51.4664 52.7678 51.2305 52.4767 51.2305H40.9479C40.6565 51.2305 40.4205 51.4664 40.4205 51.7578C40.4205 52.049 40.6565 52.2852 40.9479 52.2852Z" fill="#E250EB"/>
<path d="M24.8301 55.6176C24.8301 55.9088 25.066 56.145 25.3574 56.145H52.4766C52.7678 56.145 53.004 55.9088 53.004 55.6176C53.004 55.3262 52.7678 55.0903 52.4766 55.0903H25.3574C25.066 55.0903 24.8301 55.3262 24.8301 55.6176Z" fill="#E250EB"/>
</svg>
