<svg width="79" height="82" viewBox="0 0 79 82" fill="none" xmlns="http://www.w3.org/2000/svg">
<rect opacity="0.1" width="79" height="82" rx="5" fill="white"/>
<path d="M38.9531 34.6333H40.0469V35.7583H38.9531V34.6333Z" fill="white"/>
<path d="M49.836 38.8233L48.1292 41.4789L49.042 42.0977L50.0384 40.5457C50.2839 41.9807 49.9881 43.5832 48.7352 44.4C48.2202 44.7222 47.6693 44.9794 47.0945 45.1661C47.3002 44.7637 47.3704 44.3025 47.2941 43.8546C47.2178 43.4068 46.9993 42.9976 46.6729 42.6911C46.2102 42.3333 45.4244 42.2332 44.6068 43.0235C44.0211 43.586 43.3698 44.7735 43.9757 45.719C44.2302 46.1144 44.6266 46.3899 45.0782 46.4852C44.4317 47.3996 43.5605 48.1208 42.5538 48.5748L43.0066 49.5986C44.42 48.9547 45.602 47.8719 46.3869 46.502C47.424 46.3028 48.4178 45.9134 49.3209 45.3523C51.0009 44.2554 51.4236 42.1938 51.1201 40.373L52.5704 41.3574L53.172 40.418L50.5902 38.6653C50.4696 38.5841 50.3227 38.5552 50.1815 38.5848C50.0403 38.6144 49.9161 38.7001 49.836 38.8233ZM46.0626 44.7875C45.9532 45.0041 45.8438 45.2184 45.7312 45.4299C45.576 45.4499 45.4183 45.4303 45.2722 45.3728C45.1261 45.3153 44.996 45.2217 44.8934 45.1003C44.6883 44.7797 45.0394 44.1542 45.3604 43.8437C45.5008 43.691 45.6842 43.5873 45.8848 43.5472C45.9338 43.5459 45.9817 43.5616 46.021 43.5917C46.1506 43.7606 46.2245 43.9676 46.2319 44.1826C46.2394 44.3976 46.1801 44.6095 46.0626 44.7875Z" fill="white"/>
<path d="M41.1406 39.6958H29.1094C28.9643 39.6958 28.8252 39.7551 28.7227 39.8606C28.6201 39.966 28.5625 40.1091 28.5625 40.2583V43.0708H26.9219C26.7768 43.0708 26.6377 43.1301 26.5352 43.2356C26.4326 43.341 26.375 43.4841 26.375 43.6333V51.5083C26.375 51.6575 26.4326 51.8006 26.5352 51.906C26.6377 52.0115 26.7768 52.0708 26.9219 52.0708H38.9531C39.0982 52.0708 39.2373 52.0115 39.3398 51.906C39.4424 51.8006 39.5 51.6575 39.5 51.5083V48.6958H41.1406C41.2857 48.6958 41.4248 48.6365 41.5273 48.531C41.6299 48.4256 41.6875 48.2825 41.6875 48.1333V40.2583C41.6875 40.1091 41.6299 39.966 41.5273 39.8606C41.4248 39.7551 41.2857 39.6958 41.1406 39.6958ZM39.459 40.8208L36.4512 43.0708H33.7988L30.791 40.8208H39.459ZM29.6562 41.3631L31.9395 43.0708H29.6562V41.3631ZM37.2715 44.1958L32.9375 47.4381L28.6035 44.1958H37.2715ZM38.4062 50.9458H27.4688V44.7381L32.6159 48.5884C32.7094 48.6582 32.822 48.6959 32.9375 48.6959C33.053 48.6959 33.1656 48.6582 33.2591 48.5884L38.4062 44.7381V50.9458ZM40.5938 47.5708H39.5V43.6333C39.5 43.4841 39.4424 43.341 39.3398 43.2356C39.2373 43.1301 39.0982 43.0708 38.9531 43.0708H38.3105L40.5938 41.3631V47.5708Z" fill="white"/>
<path d="M55.5311 34.8583C55.6002 34.8379 55.6646 34.8038 55.7209 34.7578C55.7771 34.7118 55.824 34.6549 55.8588 34.5903C55.8937 34.5257 55.9158 34.4546 55.9239 34.3812C55.9321 34.3078 55.9261 34.2335 55.9063 34.1625L53.7652 26.6013C53.7453 26.5301 53.712 26.4636 53.667 26.4057C53.6221 26.3478 53.5664 26.2996 53.5033 26.2638C53.4404 26.2281 53.3712 26.2055 53.2998 26.1975C53.2283 26.1895 53.156 26.1962 53.0871 26.2171L41.5349 29.6754C41.3957 29.7171 41.2783 29.8139 41.2084 29.9446C41.1386 30.0753 41.1221 30.2291 41.1625 30.3723L41.8904 32.9458H36.4873L37.8364 28.3051C37.8779 28.1623 37.8625 28.0084 37.7937 27.8772C37.7249 27.746 37.6083 27.6482 37.4695 27.6054L29.3052 25.0944C29.1662 25.0518 29.0165 25.0676 28.8889 25.1385C28.7613 25.2094 28.6664 25.3295 28.6248 25.4724L27.0712 30.8161C27.0297 30.959 27.0451 31.1129 27.1139 31.2441C27.1827 31.3753 27.2993 31.4731 27.4381 31.5159L32.0871 32.9458H24.7344C24.5893 32.9458 24.4502 33.005 24.3477 33.1105C24.2451 33.216 24.1875 33.3591 24.1875 33.5083V53.7583H23.6406C23.4956 53.7583 23.3565 53.8175 23.2539 53.923C23.1514 54.0285 23.0938 54.1716 23.0938 54.3208V55.4458C23.0938 55.8933 23.2666 56.3225 23.5743 56.639C23.882 56.9555 24.2993 57.1333 24.7344 57.1333H54.2656C54.7007 57.1333 55.118 56.9555 55.4257 56.639C55.7334 56.3225 55.9063 55.8933 55.9063 55.4458V54.3208C55.9063 54.1716 55.8486 54.0285 55.7461 53.923C55.6435 53.8175 55.5044 53.7583 55.3594 53.7583H54.8125V35.0748L55.5311 34.8583ZM51.7779 27.7815L48.4966 32.1391L43.4545 30.2722L51.7779 27.7815ZM48.5005 33.3361C48.6091 33.3764 48.7274 33.3802 48.8383 33.3471C48.9492 33.3139 49.0471 33.2455 49.1179 33.1516L53.0149 27.9766L54.7004 33.9391L44.2004 37.0818L42.5149 31.1193L48.5005 33.3361ZM35.5445 28.1876L32.5366 29.276L30.6029 26.6677L35.5445 28.1876ZM28.2759 30.599L29.3648 26.8528L31.9077 30.284C31.9781 30.3783 32.0756 30.4474 32.1864 30.4814C32.2971 30.5155 32.4155 30.5127 32.5246 30.4736L36.4807 29.042L35.3919 32.7883L28.2759 30.599ZM25.2813 34.0708H42.2087L42.8452 36.3208H25.2813V34.0708ZM25.2813 37.4458H43.1641L43.3024 37.9335C43.3223 38.0046 43.3556 38.0711 43.4004 38.129C43.4453 38.1869 43.5008 38.2352 43.5638 38.271C43.6447 38.3163 43.7353 38.34 43.8274 38.3401C43.8791 38.3402 43.9305 38.3326 43.98 38.3176L53.7188 35.4016V53.7583H25.2813V37.4458ZM54.8125 55.4458C54.8125 55.595 54.7549 55.738 54.6523 55.8435C54.5498 55.949 54.4107 56.0083 54.2656 56.0083H24.7344C24.5893 56.0083 24.4502 55.949 24.3477 55.8435C24.2451 55.738 24.1875 55.595 24.1875 55.4458V54.8833H54.8125V55.4458Z" fill="white"/>
<path d="M24.1875 23.3833H25.2812V24.5083H24.1875V23.3833Z" fill="white"/>
<path d="M25.2812 24.5083H26.375V25.6333H25.2812V24.5083Z" fill="white"/>
<path d="M24.1875 25.6333H25.2812V26.7583H24.1875V25.6333Z" fill="white"/>
<path d="M23.0938 24.5083H24.1875V25.6333H23.0938V24.5083Z" fill="white"/>
<path d="M25.8281 27.3208H26.9219V28.4458H25.8281V27.3208Z" fill="white"/>
<path d="M44.4219 23.3833H45.5156V24.5083H44.4219V23.3833Z" fill="white"/>
<path d="M43.3281 24.5083H44.4219V25.6333H43.3281V24.5083Z" fill="white"/>
<path d="M45.5156 24.5083H46.6094V25.6333H45.5156V24.5083Z" fill="white"/>
<path d="M44.4219 25.6333H45.5156V26.7583H44.4219V25.6333Z" fill="white"/>
<path d="M41.1406 23.3833H42.2344V24.5083H41.1406V23.3833Z" fill="white"/>
<path d="M40.0469 27.3208H41.1406V28.4458H40.0469V27.3208Z" fill="white"/>
</svg>
