<svg width="121" height="121" viewBox="0 0 121 121" fill="none" xmlns="http://www.w3.org/2000/svg">
<g filter="url(#filter0_d_173_22)">
<path d="M57.6716 15.8284C59.2337 14.2663 61.7663 14.2663 63.3284 15.8284L99.1716 51.6716C100.734 53.2337 100.734 55.7663 99.1716 57.3284L63.3284 93.1716C61.7663 94.7337 59.2337 94.7337 57.6716 93.1716L21.8284 57.3284C20.2663 55.7663 20.2663 53.2337 21.8284 51.6716L57.6716 15.8284Z" fill="white"/>
</g>
<path d="M59.0858 25.9137C59.8668 25.1327 61.1332 25.1327 61.9142 25.9137L88.5858 52.5853C89.3668 53.3663 89.3668 54.6327 88.5858 55.4137L61.9142 82.0853C61.1332 82.8663 59.8668 82.8663 59.0858 82.0853L32.4142 55.4137C31.6332 54.6327 31.6332 53.3663 32.4142 52.5853L59.0858 25.9137Z" fill="#725EFE"/>
<path d="M69.7071 54.7066C70.0976 54.3161 70.0976 53.6829 69.7071 53.2924L63.3431 46.9284C62.9526 46.5379 62.3195 46.5379 61.9289 46.9284C61.5384 47.319 61.5384 47.9521 61.9289 48.3427L67.5858 53.9995L61.9289 59.6564C61.5384 60.0469 61.5384 60.6801 61.9289 61.0706C62.3195 61.4611 62.9526 61.4611 63.3431 61.0706L69.7071 54.7066ZM52 54.9995L69 54.9995L69 52.9995L52 52.9995L52 54.9995Z" fill="white"/>
<defs>
<filter id="filter0_d_173_22" x="0.65686" y="0.65686" width="119.686" height="119.686" filterUnits="userSpaceOnUse" color-interpolation-filters="sRGB">
<feFlood flood-opacity="0" result="BackgroundImageFix"/>
<feColorMatrix in="SourceAlpha" type="matrix" values="0 0 0 0 0 0 0 0 0 0 0 0 0 0 0 0 0 0 127 0" result="hardAlpha"/>
<feOffset dy="6"/>
<feGaussianBlur stdDeviation="10"/>
<feComposite in2="hardAlpha" operator="out"/>
<feColorMatrix type="matrix" values="0 0 0 0 0.447059 0 0 0 0 0.368627 0 0 0 0 0.996078 0 0 0 0.1 0"/>
<feBlend mode="normal" in2="BackgroundImageFix" result="effect1_dropShadow_173_22"/>
<feBlend mode="normal" in="SourceGraphic" in2="effect1_dropShadow_173_22" result="shape"/>
</filter>
</defs>
</svg>
