<svg width="79" height="82" viewBox="0 0 79 82" fill="none" xmlns="http://www.w3.org/2000/svg">
<rect opacity="0.1" width="79" height="82" rx="5" fill="#F99313"/>
<path d="M30.796 50.7037L27.9335 48.7951C27.6908 48.6337 27.4086 48.5483 27.1171 48.5483C26.3059 48.5483 25.6451 49.2085 25.6451 50.0203V54.0441C25.6451 54.8559 26.3059 55.5161 27.1171 55.5161C27.4086 55.5161 27.6908 55.4307 27.9335 55.2687L30.796 53.3601C31.2066 53.0867 31.4516 52.6285 31.4516 52.1356V51.9289C31.4516 51.4359 31.2066 50.9778 30.796 50.7037ZM30.2903 52.1356C30.2903 52.2395 30.2386 52.3365 30.1521 52.394L27.2895 54.3025C27.0968 54.4309 26.8064 54.277 26.8064 54.0441V50.0203C26.8064 49.849 26.9458 49.7096 27.1171 49.7096C27.1786 49.7096 27.2384 49.7276 27.2895 49.7619L30.1521 51.6705C30.2386 51.7285 30.2903 51.8249 30.2903 51.9289V52.1356Z" fill="#F99313"/>
<path d="M55.2581 23H37.8387C36.8783 23 36.0968 23.7815 36.0968 24.7419V27.6452H23.3226C22.6821 27.6452 22.1613 28.166 22.1613 28.8065V48.189C21.4291 49.2916 21 50.6126 21 52.0323C21 55.8744 24.1256 59 27.9677 59C30.0244 59 31.8703 58.0988 33.1465 56.6774H48.1074C48.7612 58.0483 50.1571 59 51.7742 59C54.0149 59 55.8387 57.1768 55.8387 54.9355V40.0936C55.8387 39.8428 55.783 39.5908 55.679 39.3637L55.0937 38.0968H55.2581C56.2185 38.0968 57 37.3152 57 36.3548V24.7419C57 23.7815 56.2185 23 55.2581 23ZM36.0968 28.8065V32.2903H23.3226V28.8065H36.0968ZM27.9677 57.8387C24.7661 57.8387 22.1613 55.2339 22.1613 52.0323C22.1613 48.8306 24.7661 46.2258 27.9677 46.2258C31.1694 46.2258 33.7742 48.8306 33.7742 52.0323C33.7742 55.2339 31.1694 57.8387 27.9677 57.8387ZM33.9925 55.5161C34.5888 54.4895 34.9355 53.3021 34.9355 52.0323C34.9355 48.1901 31.8099 45.0645 27.9677 45.0645C26.1823 45.0645 24.557 45.745 23.3226 46.8535V33.4516H36.0968V36.3548C36.0968 37.3152 36.8783 38.0968 37.8387 38.0968H40.9039L41.7494 40.6336C41.9392 41.1997 42.4676 41.5806 43.0645 41.5806C43.6614 41.5806 44.1898 41.1997 44.3797 40.633L45.2251 38.0968H48.4546L47.8699 39.3643C47.7654 39.5908 47.7097 39.8434 47.7097 40.0936V54.9355C47.7097 55.1329 47.7288 55.3257 47.7561 55.5161H33.9925ZM50.2697 36.9355H53.2786L54.3505 39.2581H49.1973L50.2697 36.9355ZM50.8057 35.7742L51.7742 33.6757L52.7427 35.7742H50.8057ZM48.871 40.4194H51.1935V50.871H48.871V40.4194ZM48.871 52.0323H54.6774V53.1935H48.871V52.0323ZM52.3548 50.871V40.4194H54.6774V50.871H52.3548ZM51.7742 57.8387C50.1734 57.8387 48.871 56.5363 48.871 54.9355V54.3548H54.6774V54.9355C54.6774 56.5363 53.375 57.8387 51.7742 57.8387ZM55.8387 36.3548C55.8387 36.6748 55.5786 36.9355 55.2581 36.9355H54.5578L51.7742 30.9049L48.9906 36.9355H44.3878L43.2782 40.2649C43.2161 40.4495 42.913 40.449 42.8508 40.2655L41.7412 36.9355H37.8387C37.5182 36.9355 37.2581 36.6748 37.2581 36.3548V24.7419C37.2581 24.422 37.5182 24.1613 37.8387 24.1613H55.2581C55.5786 24.1613 55.8387 24.422 55.8387 24.7419V36.3548Z" fill="#F99313"/>
<path d="M49.7339 28.0852L47.2696 25.621L46.5484 26.3427V25.3225H43.0646V26.3433L42.3434 25.621L39.8791 28.0852L40.6015 28.8064H39.5807V32.2902H40.6015L39.8791 33.012L42.3434 35.4762L43.0646 34.7539V35.7741H46.5484V34.7533L47.2696 35.4757L49.7339 33.0114L49.0115 32.2902H50.0323V28.8064H49.0115L49.7339 28.0852ZM48.871 31.1377C48.4582 31.187 48.1011 31.4541 47.9391 31.8461C47.7771 32.2374 47.8404 32.6787 48.097 33.0062L47.2638 33.8394C46.9369 33.5833 46.4962 33.5201 46.1037 33.6815C45.7123 33.8435 45.4452 34.2006 45.3953 34.6134H44.2171C44.1672 34.2006 43.9001 33.8435 43.5088 33.6815C43.1168 33.5195 42.6761 33.5828 42.3486 33.8394L41.5154 33.0062C41.772 32.6793 41.8359 32.238 41.6733 31.8461C41.5119 31.4541 41.1548 31.187 40.742 31.1377V29.9595C41.1548 29.9102 41.5119 29.6431 41.6739 29.2512C41.8359 28.8598 41.7726 28.4185 41.516 28.091L42.3492 27.2578C42.6761 27.5144 43.1174 27.5783 43.5093 27.4157C43.9007 27.2537 44.1678 26.8966 44.2177 26.4838H45.3959C45.4458 26.8966 45.7129 27.2537 46.1042 27.4157C46.4956 27.5772 46.9363 27.5139 47.2644 27.2578L48.0976 28.091C47.8409 28.4179 47.7771 28.8592 47.9397 29.2512C48.1017 29.6431 48.4593 29.9102 48.8716 29.9595V31.1377H48.871Z" fill="#F99313"/>
<path d="M44.8064 27.6451C43.2056 27.6451 41.9032 28.9475 41.9032 30.5484C41.9032 32.1492 43.2056 33.4516 44.8064 33.4516C46.4073 33.4516 47.7097 32.1492 47.7097 30.5484C47.7097 28.9475 46.4073 27.6451 44.8064 27.6451ZM44.8064 32.2903C43.846 32.2903 43.0645 31.5088 43.0645 30.5484C43.0645 29.588 43.846 28.8064 44.8064 28.8064C45.7668 28.8064 46.5484 29.588 46.5484 30.5484C46.5484 31.5088 45.7668 32.2903 44.8064 32.2903Z" fill="#F99313"/>
<path d="M25.0645 29.9678H26.2258V31.1291H25.0645V29.9678Z" fill="#F99313"/>
<path d="M27.3871 29.9678H28.5484V31.1291H27.3871V29.9678Z" fill="#F99313"/>
<path d="M29.7096 29.9678H30.8709V31.1291H29.7096V29.9678Z" fill="#F99313"/>
<path d="M37.258 52.0322H38.4193V53.1935H37.258V52.0322Z" fill="#F99313"/>
<path d="M40.742 52.0322H41.9033V53.1935H40.742V52.0322Z" fill="#F99313"/>
<path d="M44.2258 52.0322H45.3871V53.1935H44.2258V52.0322Z" fill="#F99313"/>
<path d="M33.7741 34.6129H25.6451C25.0047 34.6129 24.4838 35.1338 24.4838 35.7742V42.7419C24.4838 43.3824 25.0047 43.9032 25.6451 43.9032H33.7741C34.4146 43.9032 34.9354 43.3824 34.9354 42.7419V35.7742C34.9354 35.1338 34.4146 34.6129 33.7741 34.6129ZM25.6451 35.7742H33.7741L33.7747 42.2281L31.6711 38.8621C31.3714 38.383 30.8552 38.0968 30.2903 38.0968C29.7253 38.0968 29.2091 38.383 28.9095 38.8621L26.4847 42.7419H25.6451V35.7742ZM32.7267 42.7419H27.8533L29.8937 39.4776C30.0661 39.2023 30.5138 39.2029 30.6863 39.4776L32.7267 42.7419Z" fill="#F99313"/>
<path d="M26.8064 36.9355H27.9677V38.0968H26.8064V36.9355Z" fill="#F99313"/>
<path d="M37.258 42.742H39.5806V43.9033H37.258V42.742Z" fill="#F99313"/>
<path d="M40.742 42.742H45.3872V43.9033H40.742V42.742Z" fill="#F99313"/>
<path d="M37.258 45.0645H45.387V46.2258H37.258V45.0645Z" fill="#F99313"/>
<path d="M37.258 47.3871H45.387V48.5484H37.258V47.3871Z" fill="#F99313"/>
<path d="M37.258 49.7096H45.387V50.8709H37.258V49.7096Z" fill="#F99313"/>
</svg>
