<svg width="83" height="84" viewBox="0 0 83 84" fill="none" xmlns="http://www.w3.org/2000/svg">
<path d="M38.6716 3.32843C40.2337 1.76633 42.7663 1.76633 44.3284 3.32843L80.1716 39.1716C81.7337 40.7337 81.7337 43.2663 80.1716 44.8284L44.3284 80.6716C42.7663 82.2337 40.2337 82.2337 38.6716 80.6716L2.82843 44.8284C1.26633 43.2663 1.26633 40.7337 2.82843 39.1716L38.6716 3.32843Z" fill="#F5F5F5"/>
<path d="M40.0858 13.9142C40.8668 13.1332 42.1332 13.1332 42.9142 13.9142L69.5858 40.5858C70.3668 41.3668 70.3668 42.6332 69.5858 43.4142L42.9142 70.0858C42.1332 70.8668 40.8668 70.8668 40.0858 70.0858L13.4142 43.4142C12.6332 42.6332 12.6332 41.3668 13.4142 40.5858L40.0858 13.9142Z" fill="#E250EB"/>
<path d="M50.7071 42.7071C51.0976 42.3166 51.0976 41.6834 50.7071 41.2929L44.3431 34.9289C43.9526 34.5384 43.3195 34.5384 42.9289 34.9289C42.5384 35.3195 42.5384 35.9526 42.9289 36.3431L48.5858 42L42.9289 47.6569C42.5384 48.0474 42.5384 48.6805 42.9289 49.0711C43.3195 49.4616 43.9526 49.4616 44.3431 49.0711L50.7071 42.7071ZM33 43L50 43L50 41L33 41L33 43Z" fill="white"/>
</svg>
