<svg width="44" height="44" viewBox="0 0 44 44" fill="none" xmlns="http://www.w3.org/2000/svg">
<circle cx="22" cy="22" r="22" fill="white" fill-opacity="0.1"/>
<path d="M21.875 18.207C19.625 18.207 17.832 20.0352 17.832 22.25C17.832 24.5 19.625 26.293 21.875 26.293C24.0898 26.293 25.918 24.5 25.918 22.25C25.918 20.0352 24.0898 18.207 21.875 18.207ZM21.875 24.8867C20.4336 24.8867 19.2383 23.7266 19.2383 22.25C19.2383 20.8086 20.3984 19.6484 21.875 19.6484C23.3164 19.6484 24.4766 20.8086 24.4766 22.25C24.4766 23.7266 23.3164 24.8867 21.875 24.8867ZM27.0078 18.0664C27.0078 17.5391 26.5859 17.1172 26.0586 17.1172C25.5312 17.1172 25.1094 17.5391 25.1094 18.0664C25.1094 18.5938 25.5312 19.0156 26.0586 19.0156C26.5859 19.0156 27.0078 18.5938 27.0078 18.0664ZM29.6797 19.0156C29.6094 17.75 29.3281 16.625 28.4141 15.7109C27.5 14.7969 26.375 14.5156 25.1094 14.4453C23.8086 14.375 19.9062 14.375 18.6055 14.4453C17.3398 14.5156 16.25 14.7969 15.3008 15.7109C14.3867 16.625 14.1055 17.75 14.0352 19.0156C13.9648 20.3164 13.9648 24.2188 14.0352 25.5195C14.1055 26.7852 14.3867 27.875 15.3008 28.8242C16.25 29.7383 17.3398 30.0195 18.6055 30.0898C19.9062 30.1602 23.8086 30.1602 25.1094 30.0898C26.375 30.0195 27.5 29.7383 28.4141 28.8242C29.3281 27.875 29.6094 26.7852 29.6797 25.5195C29.75 24.2188 29.75 20.3164 29.6797 19.0156ZM27.9922 26.8906C27.7461 27.5938 27.1836 28.1211 26.5156 28.4023C25.4609 28.8242 23 28.7188 21.875 28.7188C20.7148 28.7188 18.2539 28.8242 17.2344 28.4023C16.5312 28.1211 16.0039 27.5938 15.7227 26.8906C15.3008 25.8711 15.4062 23.4102 15.4062 22.25C15.4062 21.125 15.3008 18.6641 15.7227 17.6094C16.0039 16.9414 16.5312 16.4141 17.2344 16.1328C18.2539 15.7109 20.7148 15.8164 21.875 15.8164C23 15.8164 25.4609 15.7109 26.5156 16.1328C27.1836 16.3789 27.7109 16.9414 27.9922 17.6094C28.4141 18.6641 28.3086 21.125 28.3086 22.25C28.3086 23.4102 28.4141 25.8711 27.9922 26.8906Z" fill="white"/>
</svg>
