<svg width="44" height="44" viewBox="0 0 44 44" fill="none" xmlns="http://www.w3.org/2000/svg">
<circle cx="22" cy="22" r="22" fill="white" fill-opacity="0.1"/>
<path d="M30.1367 18.5938C30.8398 18.0664 31.4727 17.4336 31.9648 16.6953C31.332 16.9766 30.5938 17.1875 29.8555 17.2578C30.6289 16.8008 31.1914 16.0977 31.4727 15.2188C30.7695 15.6406 29.9609 15.957 29.1523 16.1328C28.4492 15.3945 27.5 14.9727 26.4453 14.9727C24.4062 14.9727 22.7539 16.625 22.7539 18.6641C22.7539 18.9453 22.7891 19.2266 22.8594 19.5078C19.8008 19.332 17.0586 17.8555 15.2305 15.6406C14.9141 16.168 14.7383 16.8008 14.7383 17.5039C14.7383 18.7695 15.3711 19.8945 16.3906 20.5625C15.793 20.5273 15.1953 20.3867 14.7031 20.1055V20.1406C14.7031 21.9336 15.9688 23.4102 17.6562 23.7617C17.375 23.832 17.0234 23.9023 16.707 23.9023C16.4609 23.9023 16.25 23.8672 16.0039 23.832C16.4609 25.3086 17.832 26.3633 19.4492 26.3984C18.1836 27.3828 16.6016 27.9805 14.8789 27.9805C14.5625 27.9805 14.2812 27.9453 14 27.9102C15.6172 28.9648 17.5508 29.5625 19.6602 29.5625C26.4453 29.5625 30.1367 23.9727 30.1367 19.0859C30.1367 18.9102 30.1367 18.7695 30.1367 18.5938Z" fill="white"/>
</svg>
