<svg width="44" height="44" viewBox="0 0 44 44" fill="none" xmlns="http://www.w3.org/2000/svg">
<circle cx="22" cy="22" r="22" fill="white" fill-opacity="0.1"/>
<path d="M31.3008 17.6445C31.0898 16.8008 30.4219 16.1328 29.6133 15.9219C28.1016 15.5 22.125 15.5 22.125 15.5C22.125 15.5 16.1133 15.5 14.6016 15.9219C13.793 16.1328 13.125 16.8008 12.9141 17.6445C12.4922 19.1211 12.4922 22.2852 12.4922 22.2852C12.4922 22.2852 12.4922 25.4141 12.9141 26.9258C13.125 27.7695 13.793 28.4023 14.6016 28.6133C16.1133 29 22.125 29 22.125 29C22.125 29 28.1016 29 29.6133 28.6133C30.4219 28.4023 31.0898 27.7695 31.3008 26.9258C31.7227 25.4141 31.7227 22.2852 31.7227 22.2852C31.7227 22.2852 31.7227 19.1211 31.3008 17.6445ZM20.1562 25.1328V19.4375L25.1484 22.2852L20.1562 25.1328Z" fill="white"/>
</svg>
